<svg xmlns="http://www.w3.org/2000/svg" xmlns:xlink="http://www.w3.org/1999/xlink" width="64" zoomAndPan="magnify" viewBox="0 0 48 48" height="64" preserveAspectRatio="xMidYMid meet" version="1.0"><path fill="#f4f4f4" d="M 21.507812 3.382812 L 8.574219 16.316406 C 7.199219 17.691406 7.199219 19.925781 8.574219 21.300781 C 9.953125 22.679688 12.1875 22.679688 13.5625 21.300781 L 20.472656 14.390625 L 20.472656 41.144531 C 20.472656 43.089844 22.050781 44.667969 24 44.667969 C 25.945312 44.667969 27.527344 43.089844 27.527344 41.144531 L 27.527344 14.390625 L 34.4375 21.300781 C 35.8125 22.679688 38.046875 22.679688 39.425781 21.300781 C 40.800781 19.925781 40.800781 17.691406 39.425781 16.3125 L 26.492188 3.382812 C 25.117188 2.007812 22.882812 2.007812 21.507812 3.382812 Z M 21.507812 3.382812 " fill-opacity="1" fill-rule="nonzero"/></svg>